{"glyphs":{":":{"x_min":0,"x_max":322,"ha":322,"o":"m 212 415 q 235 434 261 434 q 288 434 302 415 q 312 402 312 385 q 312 378 310 370 q 303 343 281 324 q 258 305 231 305 q 206 305 191 324 q 181 336 181 354 q 181 362 183 370 q 190 398 212 415 z m 229 101 q 239 87 239 71 q 239 63 237 55 q 230 27 208 9 q 185 -10 159 -10 q 131 -10 118 9 q 108 22 108 39 q 108 46 110 55 q 117 82 139 101 q 162 119 188 119 q 215 119 229 101 z"},"$":{"x_min":0,"x_max":657,"ha":657,"o":"m 308 -146 l 251 -147 l 283 -9 q 188 -2 144 63 q 109 112 109 172 q 109 196 115 223 q 123 255 146 273 q 169 292 195 292 q 220 292 235 273 q 246 260 246 244 q 246 237 244 229 q 236 200 215 186 q 193 170 172 170 q 186 60 296 49 l 376 394 l 342 411 q 254 457 254 541 q 254 561 259 583 q 272 645 341 698 q 391 737 458 745 l 490 884 l 546 884 l 514 746 q 590 739 625 678 q 643 646 643 611 q 643 594 639 574 q 632 543 606 522 q 582 502 556 502 q 530 502 515 521 q 505 533 505 550 q 505 557 507 565 q 514 593 536 610 q 559 627 581 627 q 566 689 503 699 l 449 463 l 554 410 q 652 361 652 270 q 652 245 646 214 q 625 121 524 52 q 447 -2 339 -9 z m 398 488 l 446 697 q 417 690 394 672 q 355 642 345 594 q 343 584 343 575 q 343 515 395 489 z m 427 368 l 353 49 q 433 56 483 99 q 533 142 549 207 q 552 221 552 234 q 552 303 491 335 z"},"?":{"x_min":0,"x_max":611,"ha":611,"o":"m 289 187 q 307 264 380 324 l 444 377 q 537 453 557 538 q 562 559 562 578 q 562 606 549 634 q 522 690 445 690 q 337 690 271 567 q 295 567 310 552 q 320 541 320 523 q 320 516 318 508 q 312 482 289 464 q 265 445 240 445 q 214 445 199 464 q 189 476 189 495 q 189 503 192 514 q 212 605 293 677 q 372 747 472 747 q 567 747 625 687 q 666 644 666 581 q 666 557 660 529 q 640 438 523 359 l 412 284 q 347 239 334 187 z m 253 101 q 275 119 302 119 q 329 119 342 101 q 352 87 352 71 q 352 63 350 55 q 344 27 321 9 q 298 -10 272 -10 q 245 -10 231 9 q 222 22 222 39 q 222 46 224 55 q 230 82 253 101 z"},"<":{"x_min":0,"x_max":662,"ha":662,"o":"m 160 374 l 681 634 l 699 583 l 299 382 l 603 200 l 552 120 l 158 366 z"},"'":{"x_min":0,"x_max":280,"ha":280,"o":"m 272 757 l 357 757 l 292 538 l 236 538 z"},"=":{"x_min":0,"x_max":602,"ha":602,"o":"m 208 479 l 615 479 l 598 405 l 191 405 z m 174 332 l 581 332 l 564 259 l 157 259 z"},"a":{"x_min":0,"x_max":610,"ha":610,"o":"m 503 0 q 454 0 405 0 l 417 51 q 405 35 389 22 q 349 -10 296 -10 q 211 -10 165 57 q 125 112 125 188 q 125 225 135 269 q 166 399 262 480 q 340 547 425 547 q 477 547 504 512 q 514 499 517 485 l 529 537 l 627 537 z m 483 337 q 490 369 490 395 q 490 421 483 441 q 465 491 413 491 q 354 491 310 435 q 269 381 243 269 q 227 198 227 152 q 227 122 233 103 q 253 46 311 46 q 360 46 402 95 q 436 133 452 200 z"},"L":{"x_min":0,"x_max":599,"ha":599,"o":"m 117 -3 l 288 737 l 385 737 l 231 69 q 305 69 344 57 q 415 36 437 36 q 473 36 503 57 q 490 76 490 94 q 490 99 492 108 q 498 133 521 154 q 543 172 570 172 q 597 172 611 153 q 621 140 621 123 q 621 119 619 108 q 609 60 545 25 q 480 -10 422 -10 q 381 -10 332 7 q 301 18 252 18 q 191 18 120 -10 z"},"3":{"x_min":0,"x_max":635,"ha":635,"o":"m 155 273 q 179 292 205 292 q 229 292 245 273 q 256 260 256 244 q 256 237 254 229 q 246 200 225 186 q 203 170 179 170 q 188 47 310 47 q 373 47 427 88 q 489 135 507 213 q 513 239 513 262 q 513 308 488 343 q 451 396 368 418 l 370 425 q 444 451 486 488 q 528 524 541 582 q 545 602 545 618 q 545 648 528 668 q 502 699 462 699 q 384 699 331 627 q 353 627 368 610 q 378 599 378 582 q 378 574 376 565 q 370 539 348 521 q 325 502 298 502 q 272 502 257 522 q 247 535 247 554 q 247 563 250 574 q 265 634 310 678 q 381 747 475 747 q 552 747 592 712 q 637 672 637 617 q 637 601 633 583 q 618 513 556 471 q 507 437 448 422 q 534 414 580 363 q 617 322 617 265 q 617 242 611 216 q 587 111 492 49 q 401 -10 297 -10 q 198 -10 151 61 q 118 109 118 167 q 118 195 125 223 q 133 255 155 273 z"},";":{"x_min":0,"x_max":322,"ha":322,"o":"m 45 -113 q 95 -88 127 -53 q 145 -35 158 -10 q 130 -10 117 7 q 107 20 107 36 q 107 43 109 53 q 116 82 138 100 q 161 119 188 119 q 216 119 230 102 q 242 88 242 65 q 242 52 239 37 q 229 -3 199 -39 q 150 -95 92 -114 q 71 -121 43 -121 z m 212 415 q 235 434 261 434 q 288 434 302 415 q 312 402 312 385 q 312 378 310 370 q 303 343 281 324 q 258 305 231 305 q 206 305 191 324 q 181 337 181 354 q 181 360 183 370 q 188 396 212 415 z"},"J":{"x_min":0,"x_max":521,"ha":521,"o":"m 574 737 l 461 249 q 433 127 343 53 q 269 -10 163 -10 q 102 -10 59 21 q 25 44 25 79 q 25 87 27 97 q 33 124 56 143 q 79 161 105 161 q 133 161 146 143 q 156 130 156 114 q 156 106 154 98 q 148 71 120 46 q 137 37 172 37 q 235 37 291 84 q 333 120 350 192 l 476 737 z"},"V":{"x_min":0,"x_max":704,"ha":704,"o":"m 288 737 l 385 737 l 272 248 q 259 193 259 160 q 259 145 262 135 q 280 60 358 60 q 472 60 567 202 q 628 293 656 414 q 673 488 673 546 q 673 594 662 631 q 644 621 625 621 q 598 621 584 639 q 575 652 575 668 q 575 676 577 684 q 583 711 605 729 q 628 747 654 747 q 699 747 717 698 q 739 637 739 562 q 739 493 721 413 q 691 280 627 188 q 489 -10 339 -10 q 248 -10 191 66 q 164 103 164 163 q 164 200 175 249 z"},"\"":{"x_min":0,"x_max":405,"ha":405,"o":"m 397 757 l 482 757 l 417 538 l 361 538 z m 272 757 l 357 757 l 292 538 l 236 538 z"},"7":{"x_min":0,"x_max":498,"ha":498,"o":"m 139 582 q 207 747 311 747 q 335 747 383 729 l 485 692 q 509 683 528 683 q 580 683 658 747 l 665 747 q 637 639 500 492 l 372 357 q 292 275 277 212 q 273 195 273 178 q 273 136 301 101 q 312 87 312 70 q 312 62 310 55 q 302 26 283 9 q 261 -10 231 -10 q 204 -10 190 9 q 161 47 161 105 q 161 136 169 173 q 189 264 278 349 l 464 527 q 511 573 549 622 q 510 592 475 592 q 456 592 432 603 l 318 651 q 300 659 274 659 q 227 659 146 582 z"},"S":{"x_min":0,"x_max":657,"ha":657,"o":"m 146 273 q 169 292 195 292 q 220 292 235 273 q 246 260 246 244 q 246 237 244 229 q 236 200 215 186 q 193 170 172 170 q 187 48 322 48 q 424 48 483 99 q 533 142 549 207 q 552 221 552 234 q 552 303 491 335 l 342 411 q 254 457 254 541 q 254 562 259 583 q 272 645 341 698 q 403 747 492 747 q 585 747 625 678 q 643 646 643 611 q 643 593 639 574 q 632 543 606 522 q 582 502 556 502 q 530 502 515 521 q 505 533 505 550 q 505 557 507 565 q 514 593 536 610 q 559 627 581 627 q 564 700 479 700 q 431 700 394 672 q 355 643 345 594 q 343 584 343 575 q 343 515 395 489 l 554 410 q 652 361 652 270 q 652 245 646 214 q 626 122 524 52 q 436 -10 307 -10 q 194 -10 144 63 q 109 112 109 172 q 109 196 115 223 q 123 255 146 273 z"},"}":{"x_min":0,"x_max":379,"ha":379,"o":"m 439 369 q 333 331 311 235 l 270 56 q 248 -38 174 -97 q 112 -146 24 -146 q 9 -146 -8 -142 l 1 -102 q 17 -106 32 -106 q 74 -106 109 -80 q 153 -48 176 53 l 219 236 q 238 319 333 369 q 276 408 276 468 q 276 484 280 501 l 322 684 q 333 730 333 761 q 333 800 316 817 q 292 844 251 844 q 236 844 218 839 l 228 879 q 247 884 262 884 q 352 884 389 834 q 421 793 421 737 q 421 711 414 682 l 373 502 q 368 483 368 466 q 368 399 439 369 z"},"Z":{"x_min":0,"x_max":677,"ha":677,"o":"m 51 -10 l 48 -3 l 603 668 q 557 668 492 686 q 436 701 408 701 q 365 701 339 680 q 351 662 351 643 q 351 636 350 629 q 344 603 321 583 q 299 565 272 565 q 245 565 231 584 q 221 598 221 615 q 221 620 223 629 q 233 678 297 712 q 362 747 422 747 q 455 747 529 730 q 576 719 639 719 q 697 719 771 747 l 774 740 l 221 69 q 280 69 345 51 q 401 36 454 36 q 497 36 522 57 q 510 76 510 94 q 510 99 512 108 q 517 133 541 154 q 562 172 589 172 q 616 172 630 153 q 641 140 641 123 q 641 118 639 108 q 628 60 565 25 q 500 -10 439 -10 q 381 -10 308 7 q 261 18 184 18 q 125 18 51 -10 z"},"x":{"x_min":0,"x_max":522,"ha":522,"o":"m 455 0 l 348 0 l 303 126 q 225 50 146 19 q 99 0 39 0 l 51 54 q 103 54 145 73 q 217 106 287 177 l 154 537 l 257 537 l 360 252 q 428 331 486 419 q 461 419 446 438 q 436 451 436 468 q 436 476 438 484 q 444 510 467 528 q 490 547 516 547 q 541 547 557 528 q 570 512 570 491 q 570 481 568 471 q 562 444 541 411 q 463 290 379 200 z"},")":{"x_min":0,"x_max":319,"ha":319,"o":"m 257 884 q 300 798 320 655 q 328 603 328 550 q 328 462 307 369 q 273 222 188 83 q 100 -62 20 -146 l -5 -127 q 77 -16 128 97 q 181 213 218 369 q 253 520 253 640 q 253 753 224 865 z"},"&":{"x_min":0,"x_max":747,"ha":747,"o":"m 658 0 l 557 0 l 531 56 q 444 -10 335 -10 q 227 -10 166 49 q 117 95 117 164 q 117 188 123 216 q 144 306 223 363 q 292 414 381 422 q 329 437 296 471 q 267 502 267 547 q 267 564 271 583 q 288 659 372 712 q 427 747 504 747 q 597 747 637 678 q 655 647 655 611 q 655 594 650 574 q 644 543 619 522 q 594 502 568 502 q 542 502 527 521 q 517 533 517 550 q 517 557 519 565 q 526 593 548 610 q 570 627 593 627 q 574 699 496 699 q 456 699 415 668 q 375 639 363 582 q 358 562 358 544 q 358 513 374 488 q 397 451 461 425 l 578 175 q 637 246 676 311 q 651 311 636 330 q 625 343 625 360 q 625 367 627 375 q 633 401 657 420 q 680 438 706 438 q 730 438 747 419 q 760 404 760 383 q 760 373 757 362 q 751 335 730 302 q 664 195 601 125 z m 511 101 l 379 389 q 339 370 307 343 q 250 295 232 214 q 227 189 227 168 q 227 124 251 89 q 283 44 347 44 q 440 44 511 101 z"},"_":{"x_min":0,"x_max":602,"ha":602,"o":"m 92 -24 l 499 -24 l 482 -98 l 75 -98 z"},"v":{"x_min":0,"x_max":597,"ha":597,"o":"m 231 537 l 329 537 l 251 199 q 243 164 243 139 q 243 123 246 110 q 259 59 316 59 q 386 59 442 119 q 500 180 521 272 q 531 314 531 356 q 531 395 523 431 q 505 421 486 421 q 460 421 446 439 q 436 451 436 468 q 436 473 438 483 q 443 509 466 528 q 489 547 515 547 q 560 547 578 498 q 598 441 598 376 q 598 327 586 271 q 562 165 488 89 q 394 -10 295 -10 q 190 -10 158 58 q 145 87 145 127 q 145 160 154 200 z"},"O":{"x_min":0,"x_max":715,"ha":715,"o":"m 518 696 q 451 696 388 632 q 306 548 265 369 q 245 282 245 217 q 245 149 267 105 q 299 42 367 42 q 442 42 500 105 q 579 191 620 369 q 641 458 641 524 q 641 591 619 632 q 583 696 518 696 z m 355 -10 q 253 -10 195 65 q 142 134 142 240 q 142 299 158 369 q 203 562 335 672 q 425 747 530 747 q 635 747 690 672 q 742 602 742 496 q 742 438 727 369 q 681 172 551 68 q 455 -10 355 -10 z"},"(":{"x_min":0,"x_max":319,"ha":319,"o":"m 470 884 l 495 865 q 414 754 362 640 q 306 517 271 369 q 236 216 236 97 q 236 -16 266 -127 l 232 -146 q 190 -63 169 83 q 162 136 162 190 q 162 279 183 369 q 217 515 302 655 q 389 799 470 884 z"},"C":{"x_min":0,"x_max":678,"ha":678,"o":"m 668 209 q 624 125 550 65 q 458 -10 355 -10 q 252 -10 195 65 q 142 135 142 240 q 142 299 158 369 q 204 565 335 672 q 428 747 534 747 q 633 747 685 674 q 725 619 725 569 q 725 556 722 542 q 715 510 691 491 q 668 473 642 473 q 616 473 601 491 q 591 504 591 521 q 591 524 593 536 q 598 561 622 580 q 637 593 657 597 q 619 695 524 695 q 446 695 384 629 q 308 547 267 370 q 245 271 245 205 q 245 146 262 112 q 298 44 385 44 q 456 44 520 104 q 575 156 600 209 z"},"W":{"x_min":0,"x_max":1095,"ha":1095,"o":"m 288 737 l 385 737 l 272 248 q 260 196 260 160 q 260 146 262 135 q 272 60 368 60 q 447 60 510 133 q 549 178 565 249 l 678 737 l 776 737 l 663 248 q 650 195 650 160 q 650 147 652 135 q 663 60 749 60 q 863 60 958 202 q 1019 293 1047 414 q 1064 488 1064 546 q 1064 594 1052 631 q 1035 621 1016 621 q 990 621 975 639 q 965 651 965 667 q 965 675 967 684 q 974 711 996 729 q 1019 747 1044 747 q 1089 747 1107 698 q 1130 637 1130 562 q 1130 494 1112 413 q 1081 279 1018 188 q 879 -10 730 -10 q 617 -10 564 83 q 561 89 558 98 q 531 70 505 49 q 433 -10 330 -10 q 209 -10 174 83 q 162 113 162 154 q 162 194 175 249 z"},"A":{"x_min":0,"x_max":605,"ha":605,"o":"m 10 0 l 399 637 l 383 737 l 477 737 l 595 0 l 503 0 l 460 264 l 225 264 l 67 0 z m 254 313 l 452 313 l 413 573 z"},"f":{"x_min":0,"x_max":478,"ha":478,"o":"m 61 -200 l 189 355 l 106 355 l 120 415 l 203 415 l 216 469 q 248 608 316 674 q 393 747 484 747 q 552 747 587 688 q 609 653 609 621 q 609 609 606 599 q 599 566 576 548 q 553 529 526 529 q 500 529 486 548 q 476 561 476 578 q 476 583 478 592 q 482 616 506 637 q 521 649 542 654 q 526 695 474 695 q 417 695 377 642 q 342 593 313 469 l 301 415 l 460 415 l 446 355 l 287 355 l 159 -200 z"},"Q":{"x_min":0,"x_max":695,"ha":695,"o":"m 507 131 q 576 218 610 369 q 631 458 631 522 q 631 590 609 632 q 575 696 508 696 q 438 696 378 632 q 296 543 255 369 q 234 281 234 216 q 234 148 257 105 q 274 71 303 56 q 325 100 354 131 q 390 169 438 169 q 478 169 507 131 z m 468 21 q 417 -10 345 -10 q 243 -10 185 65 q 132 134 132 240 q 132 298 148 369 q 193 562 325 672 q 417 747 520 747 q 625 747 681 672 q 733 602 733 497 q 733 438 717 369 q 671 173 539 66 q 563 8 592 8 q 621 8 648 38 q 669 60 678 77 l 683 77 q 669 17 636 -20 q 601 -59 561 -59 q 495 -59 468 21 z m 451 73 q 434 102 399 102 q 364 102 328 62 q 320 54 317 49 q 333 42 357 42 q 406 42 451 73 z"},"w":{"x_min":0,"x_max":904,"ha":904,"o":"m 231 537 l 329 537 l 251 199 q 243 163 243 138 q 243 124 246 110 q 259 59 316 59 q 371 59 409 99 q 447 138 461 200 l 539 537 l 637 537 l 559 199 q 550 163 550 138 q 550 122 554 110 q 569 59 624 59 q 693 59 750 119 q 808 180 829 272 q 838 314 838 356 q 838 395 831 431 q 812 421 793 421 q 768 421 753 439 q 744 451 744 468 q 744 472 746 483 q 751 510 774 528 q 796 547 823 547 q 868 547 885 498 q 906 441 906 376 q 906 327 894 271 q 870 166 796 89 q 702 -10 603 -10 q 500 -10 466 58 q 461 67 458 77 q 437 55 405 31 q 350 -10 271 -10 q 197 -10 158 58 q 144 83 144 123 q 144 157 154 200 z"},"-":{"x_min":0,"x_max":602,"ha":602,"o":"m 191 405 l 598 405 l 581 332 l 174 332 z"},"E":{"x_min":0,"x_max":646,"ha":646,"o":"m 646 209 q 601 125 528 65 q 436 -10 333 -10 q 229 -10 166 49 q 117 94 117 163 q 117 188 123 216 q 145 306 223 363 q 292 414 381 422 q 329 437 296 471 q 267 502 267 547 q 267 564 271 583 q 288 659 372 712 q 427 747 504 747 q 597 747 637 678 q 655 647 655 611 q 655 594 650 574 q 644 543 619 522 q 594 502 568 502 q 542 502 527 521 q 517 533 517 550 q 517 557 519 565 q 526 593 548 610 q 570 627 593 627 q 574 699 496 699 q 458 699 415 668 q 375 641 363 582 q 358 562 358 544 q 358 513 374 488 q 397 451 461 425 l 460 418 q 366 396 305 343 q 243 290 226 213 q 221 191 221 171 q 221 125 249 88 q 283 44 356 44 q 434 44 498 104 q 552 156 578 209 z"},"s":{"x_min":0,"x_max":530,"ha":530,"o":"m 177 235 q 202 235 218 217 q 228 205 228 188 q 228 181 226 172 q 220 147 197 128 q 182 115 161 111 q 183 38 256 38 q 314 38 358 65 q 401 91 413 138 q 416 150 416 160 q 416 212 369 229 l 269 265 q 188 294 188 373 q 188 390 192 409 q 204 460 265 506 q 318 547 390 547 q 457 547 492 516 q 539 475 539 431 q 539 421 536 411 q 528 379 506 360 q 482 341 456 341 q 431 341 416 359 q 405 372 405 388 q 405 396 407 404 q 414 429 436 448 q 451 461 472 465 q 448 497 402 497 q 351 497 323 477 q 292 454 281 410 q 279 402 279 395 q 279 352 324 336 l 407 307 q 512 270 512 183 q 512 167 507 144 q 495 83 415 32 q 350 -10 256 -10 q 164 -10 120 58 q 93 99 93 138 q 93 152 97 166 q 104 198 127 217 q 150 235 177 235 z"},">":{"x_min":0,"x_max":662,"ha":662,"o":"m 677 381 l 156 120 l 137 171 l 536 371 l 232 553 l 284 634 l 679 388 z"},"l":{"x_min":0,"x_max":312,"ha":312,"o":"m 107 0 l 278 737 l 375 737 l 205 0 z"},"8":{"x_min":0,"x_max":621,"ha":621,"o":"m 443 446 q 496 473 527 514 q 550 542 559 579 q 561 589 561 599 q 561 628 542 651 q 517 683 467 683 q 417 683 379 651 q 343 621 333 579 q 331 569 331 560 q 331 503 389 474 z m 138 54 q 100 98 100 156 q 100 179 106 205 q 121 274 175 330 q 227 384 296 418 q 234 462 234 527 q 234 549 240 574 q 256 641 324 694 q 393 747 479 747 q 559 747 604 694 q 634 659 634 614 q 634 597 630 579 q 615 516 577 479 q 545 448 502 419 l 533 403 q 620 356 620 275 q 620 250 613 222 q 590 119 501 57 q 406 -10 311 -10 q 193 -10 138 54 z m 360 389 q 289 360 236 311 q 185 262 172 209 q 168 191 168 174 q 168 130 200 101 q 246 58 315 58 q 389 58 454 112 q 503 152 517 213 q 521 230 521 246 q 521 304 481 325 z"},"\\":{"x_min":0,"x_max":520,"ha":520,"o":"m 259 811 l 506 -39 l 433 -73 l 185 779 z"},"e":{"x_min":0,"x_max":569,"ha":569,"o":"m 546 175 q 511 101 464 58 q 391 -10 308 -10 q 201 -10 155 57 q 116 112 116 188 q 116 226 125 269 q 156 400 252 480 q 332 547 429 547 q 505 547 545 496 q 573 461 573 416 q 573 396 568 375 q 551 301 488 247 q 396 167 216 166 q 216 130 224 103 q 239 44 320 44 q 372 44 420 91 q 452 123 477 175 z m 220 200 q 341 204 410 272 q 460 321 473 374 q 480 405 480 428 q 480 443 476 457 q 465 495 417 495 q 347 495 300 435 q 259 381 233 269 q 222 222 220 200 z"},"b":{"x_min":0,"x_max":601,"ha":601,"o":"m 268 737 l 366 737 l 307 485 q 319 502 335 515 q 378 547 428 547 q 514 547 560 480 q 599 425 599 350 q 599 312 589 269 q 559 138 462 57 q 384 -10 299 -10 q 208 -10 166 63 q 145 99 145 156 q 145 204 160 269 z m 242 200 q 234 168 234 142 q 234 116 242 96 q 259 46 312 46 q 369 46 414 103 q 456 156 482 269 q 498 337 498 383 q 498 412 491 435 q 472 491 414 491 q 365 491 322 442 q 289 404 273 337 z"},"%":{"x_min":0,"x_max":816,"ha":816,"o":"m 633 284 q 602 284 574 251 q 546 219 530 148 q 523 119 523 95 q 523 76 528 61 q 539 24 573 24 q 607 24 633 58 q 663 97 678 159 q 686 189 686 212 q 686 237 677 253 q 662 284 633 284 z m 567 -10 q 505 -10 471 41 q 451 69 451 108 q 451 130 457 155 q 474 226 526 275 q 581 327 646 327 q 708 327 741 274 q 760 244 760 204 q 760 181 754 155 q 740 92 686 42 q 630 -10 567 -10 z m 771 747 l 830 716 l 218 -10 l 161 24 z m 346 444 q 381 444 407 478 q 438 519 452 579 q 458 607 458 630 q 458 656 450 673 q 436 704 407 704 q 376 704 348 671 q 320 639 304 568 q 297 539 297 514 q 297 496 301 481 q 311 444 346 444 z m 418 747 q 480 747 514 694 q 534 663 534 623 q 534 601 527 575 q 513 511 458 461 q 403 410 341 410 q 279 410 244 460 q 225 488 225 528 q 225 550 230 575 q 247 646 299 695 q 354 747 418 747 z"},"m":{"x_min":0,"x_max":923,"ha":923,"o":"m 107 0 l 231 537 l 329 537 l 312 466 q 331 487 353 505 q 406 547 473 547 q 554 547 585 479 q 595 459 598 435 q 623 476 660 505 q 714 547 781 547 q 862 547 888 479 q 901 445 901 405 q 901 373 893 337 l 815 0 l 718 0 l 796 338 q 804 374 804 399 q 804 414 801 427 q 788 478 735 478 q 681 478 643 438 q 605 399 590 337 l 513 0 l 415 0 l 493 338 q 501 373 501 398 q 501 411 498 427 q 485 478 428 478 q 374 478 335 438 q 297 399 283 337 l 205 0 z"},"#":{"x_min":0,"x_max":661,"ha":661,"o":"m 354 601 l 417 601 l 391 483 l 494 483 l 521 601 l 584 601 l 558 483 l 675 483 l 660 419 l 542 419 l 519 316 l 637 316 l 622 252 l 504 252 l 477 135 l 414 135 l 440 252 l 337 252 l 310 135 l 246 135 l 273 252 l 156 252 l 171 316 l 288 316 l 312 419 l 194 419 l 209 483 l 327 483 z m 375 419 l 352 316 l 456 316 l 479 419 z"},",":{"x_min":0,"x_max":344,"ha":344,"o":"m 62 -113 q 108 -90 144 -53 q 162 -35 175 -10 q 147 -10 134 8 q 124 21 124 37 q 124 44 126 54 q 133 82 155 101 q 178 120 206 120 q 233 120 247 103 q 259 88 259 65 q 259 53 255 38 q 246 -3 216 -38 q 167 -95 109 -113 q 87 -120 60 -120 z"},"n":{"x_min":0,"x_max":620,"ha":620,"o":"m 107 0 l 231 537 l 329 537 l 312 466 q 331 487 353 505 q 406 547 473 547 q 547 547 585 479 q 600 453 600 413 q 600 380 590 337 l 513 0 l 415 0 l 493 338 q 501 374 501 399 q 501 413 498 427 q 485 478 428 478 q 374 478 335 438 q 297 399 283 337 l 205 0 z"},"h":{"x_min":0,"x_max":620,"ha":620,"o":"m 107 0 l 278 737 l 375 737 l 312 466 q 331 487 353 505 q 406 547 473 547 q 547 547 585 479 q 600 453 600 413 q 600 380 590 337 l 513 0 l 415 0 l 493 338 q 501 374 501 399 q 501 414 498 427 q 484 478 428 478 q 374 478 335 438 q 297 399 283 337 l 205 0 z"},"z":{"x_min":0,"x_max":521,"ha":521,"o":"m 24 -3 l 441 471 q 421 475 393 486 q 355 501 328 501 q 286 501 260 480 q 272 461 272 443 q 272 438 271 429 q 265 404 241 383 q 220 365 193 365 q 164 365 151 384 q 142 397 142 414 q 142 421 144 429 q 153 477 217 512 q 283 547 340 547 q 380 547 430 530 q 460 520 502 520 q 544 520 605 547 l 608 540 l 195 69 q 236 69 277 51 q 312 36 342 36 q 385 36 411 57 q 398 76 398 94 q 398 99 400 108 q 405 133 429 154 q 451 172 478 172 q 504 172 519 153 q 529 140 529 123 q 529 118 527 108 q 517 60 453 25 q 388 -10 330 -10 q 290 -10 240 7 q 208 18 160 18 q 96 18 27 -10 z"},"B":{"x_min":0,"x_max":686,"ha":686,"o":"m 141 0 l 266 542 l 364 542 l 250 49 l 335 49 q 438 49 512 111 q 558 150 574 226 q 579 246 579 264 q 579 315 541 354 q 500 395 408 411 q 471 430 515 463 q 566 501 582 565 q 587 588 587 607 q 587 639 571 660 q 542 698 479 698 q 306 698 169 490 l 128 514 q 280 747 489 747 q 607 747 654 683 q 680 646 680 605 q 680 591 677 575 q 663 514 599 461 q 569 437 533 422 q 580 414 619 386 q 680 343 680 271 q 680 249 674 223 q 648 108 546 52 q 454 0 324 0 z"},"K":{"x_min":0,"x_max":726,"ha":726,"o":"m 117 0 l 288 737 l 385 737 l 282 291 q 542 423 657 620 q 632 620 616 639 q 605 652 605 669 q 605 676 607 684 q 614 710 637 729 q 660 747 686 747 q 710 747 727 728 q 739 714 739 693 q 739 683 736 671 q 729 643 711 611 q 603 421 428 323 q 531 323 557 225 l 597 68 q 609 23 651 23 q 677 23 704 46 q 722 61 733 77 l 738 77 q 719 19 676 -21 q 633 -60 596 -60 q 536 -60 517 7 l 468 187 q 446 266 372 266 q 322 266 264 211 l 215 0 z"},"R":{"x_min":0,"x_max":735,"ha":735,"o":"m 141 0 l 266 542 l 364 542 l 316 335 q 348 272 422 272 q 495 272 554 328 q 610 381 634 485 q 641 515 641 542 q 641 586 622 624 q 583 698 478 698 q 306 698 169 490 l 128 514 q 280 747 489 747 q 633 747 699 675 q 748 623 748 549 q 748 519 740 486 q 716 388 645 319 q 575 251 496 231 q 565 214 580 158 l 603 67 q 615 20 655 20 q 689 20 712 42 q 731 60 743 77 l 748 77 q 729 20 686 -21 q 643 -60 604 -60 q 534 -60 517 7 l 480 145 q 462 210 412 224 q 347 229 301 269 l 239 0 z"},"T":{"x_min":0,"x_max":633,"ha":633,"o":"m 273 0 l 398 542 l 496 542 l 371 0 z m 128 514 q 280 747 489 747 l 630 747 q 700 747 739 717 q 769 694 769 661 q 769 651 766 641 q 760 615 737 595 q 715 576 688 576 q 662 576 647 594 q 637 606 637 624 q 637 631 639 640 q 646 667 673 691 q 646 693 619 693 l 481 693 q 305 693 169 490 z"},"P":{"x_min":0,"x_max":710,"ha":710,"o":"m 141 0 l 266 542 l 364 542 l 316 335 q 348 272 422 272 q 495 272 554 328 q 610 381 634 485 q 641 515 641 542 q 641 586 622 624 q 583 698 478 698 q 306 698 169 490 l 128 514 q 280 747 489 747 q 633 747 699 675 q 748 623 748 549 q 748 519 740 486 q 716 388 645 319 q 546 224 431 224 q 353 224 301 269 l 239 0 z"},"|":{"x_min":0,"x_max":320,"ha":320,"o":"m 105 -73 l 309 811 l 385 811 l 181 -73 z"},"t":{"x_min":0,"x_max":379,"ha":379,"o":"m 141 0 l 251 478 l 130 478 l 144 537 l 265 537 l 311 737 l 409 737 l 362 537 l 483 537 l 470 478 l 349 478 l 238 0 z"},"M":{"x_min":0,"x_max":910,"ha":910,"o":"m 73 0 l 307 623 l 280 737 l 376 737 l 491 155 l 878 737 l 940 737 l 890 663 l 836 0 l 742 0 l 790 508 l 440 -20 l 433 -20 l 327 526 l 127 0 z"},"g":{"x_min":0,"x_max":591,"ha":591,"o":"m 417 51 q 398 30 389 22 q 348 -10 296 -10 q 211 -10 165 57 q 125 112 125 188 q 125 225 135 269 q 166 399 262 480 q 340 547 425 547 q 477 547 504 512 q 514 499 517 485 l 529 537 l 627 537 l 514 49 q 486 -72 396 -147 q 322 -210 216 -210 q 154 -210 112 -179 q 79 -155 79 -122 q 79 -113 81 -104 q 87 -77 110 -58 q 132 -39 159 -39 q 185 -39 200 -57 q 210 -69 210 -86 q 210 -94 208 -103 q 201 -129 173 -154 q 191 -164 226 -164 q 289 -164 344 -116 q 387 -80 403 -8 z m 483 337 q 490 369 490 395 q 490 421 483 441 q 465 491 413 491 q 354 491 310 435 q 269 381 243 269 q 227 198 227 152 q 227 122 233 103 q 253 46 311 46 q 360 46 402 95 q 436 133 452 200 z"},"j":{"x_min":0,"x_max":312,"ha":312,"o":"m 249 667 q 249 674 250 683 q 257 710 280 729 q 303 747 329 747 q 354 747 369 729 q 379 715 379 698 q 379 691 377 683 q 371 655 348 637 q 325 618 299 618 q 272 618 258 637 q 249 650 249 667 z m 231 537 l 329 537 l 224 81 q 172 -143 -32 -200 l -30 -193 q 85 -95 126 81 z"},"i":{"x_min":0,"x_max":312,"ha":312,"o":"m 249 667 q 249 674 250 683 q 257 710 280 729 q 303 747 329 747 q 354 747 369 729 q 379 715 379 698 q 379 691 377 683 q 371 655 348 637 q 325 618 299 618 q 272 618 258 637 q 249 650 249 667 z m 107 0 l 231 537 l 329 537 l 205 0 z"},"y":{"x_min":0,"x_max":601,"ha":601,"o":"m 231 537 l 329 537 l 251 199 q 243 164 243 139 q 243 123 246 110 q 259 59 316 59 q 371 59 409 99 q 447 138 461 200 l 539 537 l 637 537 l 524 49 q 496 -72 406 -147 q 332 -210 226 -210 q 164 -210 122 -179 q 88 -155 88 -122 q 88 -113 90 -104 q 97 -77 120 -58 q 142 -39 169 -39 q 194 -39 209 -57 q 220 -69 220 -86 q 220 -95 218 -103 q 210 -129 183 -154 q 201 -164 236 -164 q 298 -164 354 -116 q 396 -80 413 -8 l 431 70 q 417 52 392 32 q 338 -10 271 -10 q 183 -10 158 58 q 146 93 146 132 q 146 165 154 200 z"},"@":{"x_min":0,"x_max":668,"ha":668,"o":"m 546 0 q 498 0 449 0 l 455 24 q 418 -10 377 -10 q 330 -10 291 25 q 245 65 245 120 q 245 136 249 154 q 266 228 326 267 q 406 317 522 318 l 537 384 q 542 407 542 425 q 542 453 530 468 q 507 497 460 497 q 393 497 318 408 q 237 313 202 163 q 188 102 188 50 q 188 -30 222 -87 q 260 -152 321 -159 l 309 -210 q 206 -210 148 -135 q 96 -66 96 39 q 96 98 112 168 q 159 372 289 472 q 387 547 485 547 q 561 547 601 512 q 640 478 640 424 q 640 405 635 383 z m 517 296 q 448 273 403 245 q 355 215 341 155 q 336 134 336 116 q 336 87 350 69 q 372 40 407 40 q 458 40 478 125 z"},".":{"x_min":0,"x_max":322,"ha":322,"o":"m 108 39 q 108 46 110 55 q 117 82 140 101 q 162 119 188 119 q 215 119 229 101 q 239 87 239 71 q 239 63 237 55 q 230 27 208 9 q 185 -10 159 -10 q 132 -10 118 9 q 108 22 108 39 z"},"p":{"x_min":0,"x_max":610,"ha":610,"o":"m 231 537 q 280 537 329 537 l 317 486 q 330 502 345 515 q 385 547 438 547 q 523 547 570 480 q 609 425 609 350 q 609 312 599 269 q 568 138 472 57 q 394 -10 309 -10 q 257 -10 230 25 q 221 38 217 52 l 159 -200 l 61 -200 z m 251 200 q 244 168 244 142 q 244 116 251 96 q 269 46 321 46 q 379 46 424 103 q 466 156 492 269 q 507 337 507 383 q 507 413 500 435 q 482 491 424 491 q 375 491 332 442 q 298 404 283 337 z"},"X":{"x_min":0,"x_max":619,"ha":619,"o":"m 512 0 l 420 0 l 368 191 q 239 72 173 33 q 119 0 49 0 l 62 58 q 117 58 157 85 q 224 130 350 252 l 220 737 l 314 737 l 422 324 q 550 444 615 620 q 590 620 574 639 q 563 652 563 669 q 563 676 565 684 q 572 710 595 729 q 618 747 644 747 q 669 747 685 728 q 697 713 697 690 q 697 675 693 657 q 688 640 682 623 q 618 438 439 263 z"},"*":{"x_min":0,"x_max":678,"ha":678,"o":"m 509 757 l 516 757 l 525 601 l 605 635 l 556 566 l 701 520 l 699 513 l 533 468 l 550 396 l 489 430 l 407 274 l 400 274 l 391 430 l 311 396 l 361 465 l 215 511 l 217 518 l 383 562 l 366 635 l 427 601 z"},"Y":{"x_min":0,"x_max":693,"ha":693,"o":"m 288 737 l 385 737 l 323 468 q 311 416 311 379 q 311 367 312 354 q 324 279 404 279 q 470 279 532 353 q 570 398 587 469 l 649 737 l 747 737 l 634 249 q 605 127 516 53 q 441 -10 335 -10 q 246 -10 202 21 q 169 44 169 79 q 169 87 171 97 q 177 124 200 143 q 223 161 249 161 q 275 161 290 143 q 300 131 300 114 q 300 106 298 98 q 292 72 264 46 q 281 37 345 37 q 411 37 462 88 q 510 135 529 217 l 551 312 q 535 293 518 276 q 447 210 366 210 q 253 210 225 302 q 214 336 214 377 q 214 418 226 469 z"},"c":{"x_min":0,"x_max":569,"ha":569,"o":"m 546 175 q 511 101 464 58 q 391 -10 308 -10 q 202 -10 155 57 q 116 111 116 187 q 116 225 125 269 q 157 402 252 480 q 333 547 431 547 q 514 547 556 479 q 582 438 582 398 q 582 385 579 371 q 572 339 549 320 q 525 302 500 302 q 474 302 458 320 q 448 333 448 350 q 448 357 450 365 q 457 392 479 409 q 495 422 515 426 q 497 495 417 495 q 351 495 300 435 q 259 385 233 269 q 217 197 217 152 q 217 122 224 103 q 244 44 320 44 q 372 44 420 91 q 452 123 477 175 z"},"!":{"x_min":0,"x_max":322,"ha":322,"o":"m 108 39 q 108 46 110 55 q 117 82 140 101 q 162 119 188 119 q 215 119 229 101 q 239 87 239 71 q 239 63 237 55 q 230 27 208 9 q 185 -10 159 -10 q 132 -10 118 9 q 108 22 108 39 z m 172 154 l 253 672 q 254 678 255 683 q 260 709 284 729 q 307 747 333 747 q 360 747 374 729 q 384 716 384 699 q 384 691 382 683 l 379 672 l 220 154 z"},"/":{"x_min":0,"x_max":520,"ha":520,"o":"m 635 811 l 695 779 l 53 -73 l -4 -39 z"},"[":{"x_min":0,"x_max":398,"ha":398,"o":"m 88 -146 l 326 884 l 578 884 l 564 825 l 404 825 l 192 -90 l 353 -90 l 340 -146 z"},"6":{"x_min":0,"x_max":657,"ha":657,"o":"m 655 556 q 632 537 605 537 q 579 537 565 556 q 555 569 555 586 q 555 593 557 600 q 562 625 585 645 q 601 657 621 662 q 585 696 516 696 q 447 696 385 632 q 310 554 278 417 q 359 505 456 505 q 554 505 609 433 q 648 380 648 311 q 648 279 640 242 q 615 136 521 57 q 441 -10 352 -10 q 251 -10 195 65 q 142 136 142 242 q 142 300 158 369 q 202 553 334 669 q 422 747 527 747 q 596 747 640 717 q 690 682 690 632 q 690 620 688 606 q 681 578 655 556 z m 435 451 q 362 451 302 382 q 267 341 249 266 q 241 233 241 204 q 241 148 267 105 q 304 41 370 41 q 426 41 473 102 q 511 151 533 244 q 544 294 544 332 q 544 369 533 393 q 507 451 435 451 z"},"r":{"x_min":0,"x_max":504,"ha":504,"o":"m 107 0 l 231 537 l 329 537 l 312 466 q 331 487 353 505 q 406 547 469 547 q 536 547 572 488 q 593 453 593 420 q 593 409 591 398 q 583 366 561 348 q 538 329 511 329 q 486 329 471 348 q 460 361 460 377 q 460 385 462 392 q 469 418 491 437 q 506 449 526 454 q 511 495 458 495 q 387 495 333 409 q 279 322 260 239 l 205 0 z"},"2":{"x_min":0,"x_max":644,"ha":644,"o":"m 78 -10 l 71 -10 q 107 146 296 282 l 452 394 q 539 457 558 538 q 563 559 563 578 q 563 609 550 634 q 521 690 446 690 q 338 690 271 567 q 296 567 311 552 q 321 541 321 523 q 321 516 319 508 q 312 482 290 464 q 266 445 241 445 q 215 445 200 464 q 190 476 190 495 q 190 503 193 514 q 213 605 294 677 q 373 747 473 747 q 568 747 626 687 q 667 644 667 581 q 667 557 661 529 q 637 420 529 355 l 328 235 q 229 176 187 115 q 233 150 263 150 q 277 150 305 140 l 439 91 q 460 83 483 83 q 538 83 609 155 l 616 155 q 548 -10 445 -10 q 430 -10 373 8 l 251 45 q 223 54 208 54 q 157 54 78 -10 z"},"{":{"x_min":0,"x_max":379,"ha":379,"o":"m 109 369 q 216 406 238 502 l 279 682 q 301 773 375 834 q 436 884 525 884 q 540 884 558 879 l 548 839 q 533 844 517 844 q 476 844 439 817 q 396 786 373 684 l 331 501 q 312 418 215 369 q 273 330 273 269 q 273 253 270 236 l 227 53 q 216 7 216 -24 q 216 -63 232 -80 q 256 -106 298 -106 q 313 -106 331 -102 l 322 -142 q 302 -146 288 -146 q 200 -146 160 -97 q 128 -57 128 0 q 128 26 135 56 l 176 235 q 181 255 181 271 q 181 338 109 369 z"},"9":{"x_min":0,"x_max":657,"ha":657,"o":"m 173 182 q 195 200 222 200 q 248 200 263 182 q 273 168 273 152 q 273 146 271 137 q 266 113 242 93 q 227 80 207 76 q 242 41 312 41 q 381 41 442 105 q 517 183 549 320 q 468 232 372 232 q 274 232 219 305 q 179 356 179 427 q 179 459 188 495 q 212 601 307 680 q 386 747 475 747 q 577 747 633 672 q 685 602 685 496 q 685 439 669 369 q 627 186 494 68 q 405 -10 300 -10 q 231 -10 188 21 q 137 55 137 105 q 137 117 140 131 q 146 160 173 182 z m 457 696 q 401 696 355 636 q 315 584 294 494 q 283 445 283 408 q 283 371 294 344 q 319 287 393 287 q 465 287 525 355 q 562 397 579 471 q 586 504 586 534 q 586 588 561 632 q 524 696 457 696 z"}," ":{"x_min":0,"x_max":389,"ha":389,"o":""},"I":{"x_min":0,"x_max":332,"ha":332,"o":"m 117 0 l 288 737 l 385 737 l 215 0 z"},"H":{"x_min":0,"x_max":723,"ha":723,"o":"m 117 0 l 288 737 l 385 737 l 290 323 l 583 323 l 678 737 l 776 737 l 605 0 l 508 0 l 569 264 l 276 264 l 215 0 z"},"4":{"x_min":0,"x_max":575,"ha":575,"o":"m 355 0 l 396 176 l 43 176 l 45 183 l 620 757 l 627 757 l 507 235 l 582 235 l 542 176 l 493 176 l 453 0 q 453 0 355 0 z m 409 235 l 481 548 l 170 235 z"},"~":{"x_min":0,"x_max":698,"ha":698,"o":"m 167 300 q 246 450 352 450 q 388 450 412 432 l 510 359 q 528 347 551 347 q 601 347 696 412 q 617 263 508 263 q 472 263 451 280 l 353 353 q 335 365 311 365 q 262 365 167 300 z"},"D":{"x_min":0,"x_max":754,"ha":754,"o":"m 141 0 l 266 542 l 364 542 l 250 49 l 335 49 q 458 49 552 156 q 617 229 648 364 q 664 435 664 491 q 664 542 650 582 q 608 698 482 698 q 306 698 169 490 l 128 514 q 280 747 489 747 q 658 747 735 622 q 771 565 771 483 q 771 430 756 368 q 720 216 618 115 q 502 0 324 0 z"},"^":{"x_min":0,"x_max":620,"ha":620,"o":"m 230 559 l 500 757 l 650 574 l 567 512 l 455 652 l 266 513 z"},"0":{"x_min":0,"x_max":715,"ha":715,"o":"m 518 696 q 451 696 388 632 q 306 548 265 369 q 245 282 245 217 q 245 149 267 105 q 299 42 367 42 q 442 42 500 105 q 579 191 620 369 q 641 458 641 524 q 641 591 619 632 q 583 696 518 696 z m 355 -10 q 253 -10 195 65 q 142 134 142 240 q 142 299 158 369 q 203 562 335 672 q 425 747 530 747 q 635 747 690 672 q 742 602 742 496 q 742 438 727 369 q 681 172 551 68 q 455 -10 355 -10 z"},"F":{"x_min":0,"x_max":591,"ha":591,"o":"m 117 0 l 226 469 q 256 603 343 681 q 417 747 521 747 q 603 747 646 680 q 672 638 672 598 q 672 585 669 571 q 661 538 639 521 q 616 502 589 502 q 563 502 549 521 q 539 534 539 550 q 539 554 541 565 q 545 589 569 609 q 584 622 605 626 q 587 695 507 695 q 441 695 391 635 q 350 585 323 469 l 311 415 l 484 415 l 471 355 l 297 355 l 215 0 z"},"`":{"x_min":0,"x_max":396,"ha":396,"o":"m 418 563 l 272 659 q 257 667 257 687 q 258 693 259 701 q 264 723 284 741 q 303 757 329 757 q 359 757 369 733 l 430 574 z"},"k":{"x_min":0,"x_max":580,"ha":580,"o":"m 107 0 l 278 737 l 375 737 l 253 209 q 443 297 529 418 q 506 420 492 438 q 481 452 481 468 q 481 476 483 484 q 490 509 513 528 q 535 547 563 547 q 590 547 605 527 q 620 509 620 488 q 620 479 618 471 q 613 454 604 438 q 542 328 407 239 q 472 205 501 122 l 548 0 l 442 0 l 398 120 q 377 166 328 196 q 292 176 240 153 l 205 0 z"},"u":{"x_min":0,"x_max":620,"ha":620,"o":"m 513 0 l 415 0 l 431 71 q 414 50 392 32 q 338 -10 271 -10 q 195 -10 158 58 q 144 84 144 124 q 144 158 154 200 l 231 537 l 329 537 l 251 199 q 243 163 243 138 q 243 122 246 110 q 261 59 316 59 q 371 59 409 99 q 447 138 461 200 l 539 537 l 637 537 z"},"]":{"x_min":0,"x_max":398,"ha":398,"o":"m -9 -146 l 3 -90 l 164 -90 l 375 825 l 215 825 l 229 884 l 480 884 l 242 -146 z"},"U":{"x_min":0,"x_max":723,"ha":723,"o":"m 605 0 q 557 0 508 0 l 530 94 q 512 72 496 57 q 427 -10 330 -10 q 222 -10 174 83 q 161 107 161 147 q 161 189 175 249 l 288 737 l 385 737 l 272 248 q 260 195 260 160 q 260 146 262 135 q 274 60 368 60 q 448 60 510 133 q 549 178 565 249 l 678 737 l 776 737 z"},"o":{"x_min":0,"x_max":580,"ha":580,"o":"m 288 -10 q 201 -10 155 57 q 116 112 116 188 q 116 225 125 269 q 157 402 252 480 q 333 547 417 547 q 502 547 549 480 q 588 426 588 350 q 588 312 579 269 q 548 138 452 57 q 373 -10 288 -10 z m 403 491 q 344 491 300 435 q 259 381 233 269 q 217 198 217 152 q 217 122 224 103 q 244 46 301 46 q 358 46 403 103 q 446 156 471 269 q 487 338 487 384 q 487 415 480 435 q 460 491 403 491 z"},"N":{"x_min":0,"x_max":739,"ha":739,"o":"m 126 0 l 272 630 l 219 737 l 329 737 l 605 186 l 733 737 l 788 737 l 613 -20 l 605 -20 l 311 562 l 181 0 z"},"+":{"x_min":0,"x_max":602,"ha":602,"o":"m 397 572 l 470 572 l 432 405 l 598 405 l 581 332 l 415 332 l 376 165 l 303 165 l 341 332 l 174 332 l 191 405 l 358 405 z"},"G":{"x_min":0,"x_max":703,"ha":703,"o":"m 712 316 q 680 178 550 65 q 463 -10 355 -10 q 251 -10 195 65 q 142 135 142 241 q 142 299 158 369 q 204 566 335 672 q 428 747 534 747 q 633 747 685 674 q 725 619 725 569 q 725 556 722 542 q 715 510 691 491 q 668 473 642 473 q 616 473 601 491 q 591 504 591 521 q 591 525 593 536 q 598 561 622 580 q 637 593 657 597 q 619 695 524 695 q 446 695 384 629 q 308 547 267 370 q 245 271 245 205 q 245 146 262 112 q 299 42 367 42 q 450 42 507 101 q 552 148 563 199 q 566 212 566 224 q 566 293 457 309 q 457 312 458 316 z"},"q":{"x_min":0,"x_max":610,"ha":610,"o":"m 627 537 q 627 537 457 -200 l 359 -200 l 417 52 q 407 38 392 25 q 348 -10 296 -10 q 212 -10 165 57 q 125 111 125 188 q 125 225 135 269 q 164 397 262 480 q 340 547 425 547 q 478 547 502 515 q 513 501 518 486 l 529 537 q 578 537 627 537 z m 483 337 q 490 368 490 394 q 490 419 482 442 q 466 491 413 491 q 354 491 310 435 q 268 381 243 269 q 227 199 227 153 q 227 123 233 103 q 251 46 311 46 q 363 46 403 96 q 437 138 452 200 z"},"d":{"x_min":0,"x_max":610,"ha":610,"o":"m 503 0 q 454 0 405 0 l 417 51 q 405 35 389 22 q 349 -10 296 -10 q 211 -10 165 57 q 125 112 125 188 q 125 226 135 269 q 166 399 262 480 q 340 547 425 547 q 477 547 504 512 q 514 499 517 485 l 576 737 l 673 737 z m 483 337 q 490 369 490 395 q 490 421 483 441 q 465 491 413 491 q 354 491 310 435 q 269 381 243 269 q 227 198 227 152 q 227 122 233 103 q 253 46 311 46 q 360 46 402 95 q 436 133 452 200 z"},"1":{"x_min":0,"x_max":342,"ha":342,"o":"m 122 0 l 234 486 q 239 506 239 523 q 239 584 178 601 q 179 604 179 608 q 305 653 387 757 l 395 757 l 220 0 z"},"5":{"x_min":0,"x_max":635,"ha":635,"o":"m 155 273 q 179 292 205 292 q 229 292 245 273 q 256 260 256 244 q 256 237 254 229 q 246 200 225 186 q 203 170 179 170 q 188 47 310 47 q 373 47 427 88 q 490 136 507 213 q 515 246 515 272 q 515 315 495 344 q 459 397 397 397 q 334 397 273 332 q 243 391 210 413 l 359 737 l 698 737 q 623 637 524 637 q 425 637 383 692 l 295 416 q 358 453 434 453 q 533 453 589 375 q 619 333 619 276 q 619 248 611 216 q 587 111 492 49 q 401 -10 297 -10 q 198 -10 151 61 q 118 109 118 167 q 118 195 125 223 q 133 255 155 273 z"}}}
